{
 "cells": [
  {
   "cell_type": "code",
   "execution_count": 1,
   "id": "2b6fd945",
   "metadata": {},
   "outputs": [],
   "source": [
    "import os\n",
    "import pandas as pd\n",
    "import numpy as np"
   ]
  },
  {
   "cell_type": "code",
   "execution_count": 2,
   "id": "9bcaf1ad",
   "metadata": {},
   "outputs": [
    {
     "name": "stdout",
     "output_type": "stream",
     "text": [
      "디렉토리 :  jeong\n",
      "파일명 :  aesop_did.wav\n",
      "파일명 :  aha.wav\n",
      "파일명 :  a_melon_is_bigger_than_an_apple.wav\n",
      "파일명 :  a_tiger_is_slower_than_a_zebra.wav\n",
      "파일명 :  a_watermelon_is_bigger_than_a_melon.wav\n",
      "파일명 :  a_zebra_is_faster_than_a_giraffe.wav\n"
     ]
    },
    {
     "name": "stderr",
     "output_type": "stream",
     "text": [
      "ffmpeg version 4.3.1 Copyright (c) 2000-2020 the FFmpeg developers\n",
      "  built with gcc 10.2.1 (GCC) 20200726\n",
      "  configuration: --disable-static --enable-shared --enable-gpl --enable-version3 --enable-sdl2 --enable-fontconfig --enable-gnutls --enable-iconv --enable-libass --enable-libdav1d --enable-libbluray --enable-libfreetype --enable-libmp3lame --enable-libopencore-amrnb --enable-libopencore-amrwb --enable-libopenjpeg --enable-libopus --enable-libshine --enable-libsnappy --enable-libsoxr --enable-libsrt --enable-libtheora --enable-libtwolame --enable-libvpx --enable-libwavpack --enable-libwebp --enable-libx264 --enable-libx265 --enable-libxml2 --enable-libzimg --enable-lzma --enable-zlib --enable-gmp --enable-libvidstab --enable-libvmaf --enable-libvorbis --enable-libvo-amrwbenc --enable-libmysofa --enable-libspeex --enable-libxvid --enable-libaom --enable-libgsm --enable-librav1e --disable-w32threads --enable-libmfx --enable-ffnvcodec --enable-cuda-llvm --enable-cuvid --enable-d3d11va --enable-nvenc --enable-nvdec --enable-dxva2 --enable-avisynth --enable-libopenmpt --enable-amf\n",
      "  libavutil      56. 51.100 / 56. 51.100\n",
      "  libavcodec     58. 91.100 / 58. 91.100\n",
      "  libavformat    58. 45.100 / 58. 45.100\n",
      "  libavdevice    58. 10.100 / 58. 10.100\n",
      "  libavfilter     7. 85.100 /  7. 85.100\n",
      "  libswscale      5.  7.100 /  5.  7.100\n",
      "  libswresample   3.  7.100 /  3.  7.100\n",
      "  libpostproc    55.  7.100 / 55.  7.100\n",
      "Guessed Channel Layout for Input Stream #0.0 : mono\n",
      "Input #0, wav, from 'aesop_did.wav':\n",
      "  Metadata:\n",
      "    encoder         : SOUND FORGE Pro 12.1\n",
      "    title           : 1787\n",
      "    date            : 2021-10-28\n",
      "    creation_time   : 13-08-25\n",
      "    time_reference  : 257672812\n",
      "    coding_history  : A=PCM,F=44100,W=16,T=SOUND FORGE Pro 12.1, \n",
      "                    : A=Microsoft PCM Format F=44100 W=16 M=mono \n",
      "                    : A=PCM,F=44100,W=16,T=SOUND FORGE Pro 12.1, \n",
      "                    : \n",
      "  Duration: 00:00:01.52, bitrate: 710 kb/s\n",
      "    Stream #0:0: Audio: pcm_s16le ([1][0][0][0] / 0x0001), 44100 Hz, mono, s16, 705 kb/s\n",
      "Stream mapping:\n",
      "  Stream #0:0 -> #0:0 (pcm_s16le (native) -> pcm_s16le (native))\n",
      "Press [q] to stop, [?] for help\n",
      "Output #0, wav, to 'aesop_did.wav.16kHz.mono.wav':\n",
      "  Metadata:\n",
      "    time_reference  : 257672812\n",
      "    INAM            : 1787\n",
      "    ICRD            : 2021-10-28\n",
      "    coding_history  : A=PCM,F=44100,W=16,T=SOUND FORGE Pro 12.1, \n",
      "                    : A=Microsoft PCM Format F=44100 W=16 M=mono \n",
      "                    : A=PCM,F=44100,W=16,T=SOUND FORGE Pro 12.1, \n",
      "                    : \n",
      "    ISFT            : Lavf58.45.100\n",
      "    Stream #0:0: Audio: pcm_s16le ([1][0][0][0] / 0x0001), 16000 Hz, mono, s16, 256 kb/s\n",
      "    Metadata:\n",
      "      encoder         : Lavc58.91.100 pcm_s16le\n",
      "size=      48kB time=00:00:01.51 bitrate= 256.6kbits/s speed=  42x    \n",
      "video:0kB audio:47kB subtitle:0kB other streams:0kB global headers:0kB muxing overhead: 0.230605%\n",
      "ffmpeg version 4.3.1 Copyright (c) 2000-2020 the FFmpeg developers\n",
      "  built with gcc 10.2.1 (GCC) 20200726\n",
      "  configuration: --disable-static --enable-shared --enable-gpl --enable-version3 --enable-sdl2 --enable-fontconfig --enable-gnutls --enable-iconv --enable-libass --enable-libdav1d --enable-libbluray --enable-libfreetype --enable-libmp3lame --enable-libopencore-amrnb --enable-libopencore-amrwb --enable-libopenjpeg --enable-libopus --enable-libshine --enable-libsnappy --enable-libsoxr --enable-libsrt --enable-libtheora --enable-libtwolame --enable-libvpx --enable-libwavpack --enable-libwebp --enable-libx264 --enable-libx265 --enable-libxml2 --enable-libzimg --enable-lzma --enable-zlib --enable-gmp --enable-libvidstab --enable-libvmaf --enable-libvorbis --enable-libvo-amrwbenc --enable-libmysofa --enable-libspeex --enable-libxvid --enable-libaom --enable-libgsm --enable-librav1e --disable-w32threads --enable-libmfx --enable-ffnvcodec --enable-cuda-llvm --enable-cuvid --enable-d3d11va --enable-nvenc --enable-nvdec --enable-dxva2 --enable-avisynth --enable-libopenmpt --enable-amf\n",
      "  libavutil      56. 51.100 / 56. 51.100\n",
      "  libavcodec     58. 91.100 / 58. 91.100\n",
      "  libavformat    58. 45.100 / 58. 45.100\n",
      "  libavdevice    58. 10.100 / 58. 10.100\n",
      "  libavfilter     7. 85.100 /  7. 85.100\n",
      "  libswscale      5.  7.100 /  5.  7.100\n",
      "  libswresample   3.  7.100 /  3.  7.100\n",
      "  libpostproc    55.  7.100 / 55.  7.100\n",
      "Guessed Channel Layout for Input Stream #0.0 : mono\n",
      "Input #0, wav, from 'aha.wav':\n",
      "  Metadata:\n",
      "    encoder         : SOUND FORGE Pro 15.0;SOUND FORGE Pro 12.1\n",
      "    title           : 3130\n",
      "    date            : 2021-11-02\n",
      "    creation_time   : 09-25-09\n",
      "    time_reference  : 478697109\n",
      "    coding_history  : A=PCM,F=48000,W=24,T=SOUND FORGE Pro 12.1, \n",
      "                    : A=Microsoft PCM Format F=44100 W=16 M=mono \n",
      "                    : A=PCM,F=44100,W=16,T=SOUND FORGE Pro 12.1, \n",
      "                    : \n",
      "  Duration: 00:00:00.77, bitrate: 714 kb/s\n",
      "    Stream #0:0: Audio: pcm_s16le ([1][0][0][0] / 0x0001), 44100 Hz, mono, s16, 705 kb/s\n",
      "Stream mapping:\n",
      "  Stream #0:0 -> #0:0 (pcm_s16le (native) -> pcm_s16le (native))\n",
      "Press [q] to stop, [?] for help\n",
      "Output #0, wav, to 'aha.wav.16kHz.mono.wav':\n",
      "  Metadata:\n",
      "    time_reference  : 478697109\n",
      "    INAM            : 3130\n",
      "    ICRD            : 2021-11-02\n",
      "    coding_history  : A=PCM,F=48000,W=24,T=SOUND FORGE Pro 12.1, \n",
      "                    : A=Microsoft PCM Format F=44100 W=16 M=mono \n",
      "                    : A=PCM,F=44100,W=16,T=SOUND FORGE Pro 12.1, \n",
      "                    : \n",
      "    ISFT            : Lavf58.45.100\n",
      "    Stream #0:0: Audio: pcm_s16le ([1][0][0][0] / 0x0001), 16000 Hz, mono, s16, 256 kb/s\n",
      "    Metadata:\n",
      "      encoder         : Lavc58.91.100 pcm_s16le\n",
      "size=      24kB time=00:00:00.76 bitrate= 257.2kbits/s speed= 147x    \n",
      "video:0kB audio:24kB subtitle:0kB other streams:0kB global headers:0kB muxing overhead: 0.455729%\n",
      "ffmpeg version 4.3.1 Copyright (c) 2000-2020 the FFmpeg developers\n",
      "  built with gcc 10.2.1 (GCC) 20200726\n",
      "  configuration: --disable-static --enable-shared --enable-gpl --enable-version3 --enable-sdl2 --enable-fontconfig --enable-gnutls --enable-iconv --enable-libass --enable-libdav1d --enable-libbluray --enable-libfreetype --enable-libmp3lame --enable-libopencore-amrnb --enable-libopencore-amrwb --enable-libopenjpeg --enable-libopus --enable-libshine --enable-libsnappy --enable-libsoxr --enable-libsrt --enable-libtheora --enable-libtwolame --enable-libvpx --enable-libwavpack --enable-libwebp --enable-libx264 --enable-libx265 --enable-libxml2 --enable-libzimg --enable-lzma --enable-zlib --enable-gmp --enable-libvidstab --enable-libvmaf --enable-libvorbis --enable-libvo-amrwbenc --enable-libmysofa --enable-libspeex --enable-libxvid --enable-libaom --enable-libgsm --enable-librav1e --disable-w32threads --enable-libmfx --enable-ffnvcodec --enable-cuda-llvm --enable-cuvid --enable-d3d11va --enable-nvenc --enable-nvdec --enable-dxva2 --enable-avisynth --enable-libopenmpt --enable-amf\n",
      "  libavutil      56. 51.100 / 56. 51.100\n",
      "  libavcodec     58. 91.100 / 58. 91.100\n",
      "  libavformat    58. 45.100 / 58. 45.100\n",
      "  libavdevice    58. 10.100 / 58. 10.100\n",
      "  libavfilter     7. 85.100 /  7. 85.100\n",
      "  libswscale      5.  7.100 /  5.  7.100\n",
      "  libswresample   3.  7.100 /  3.  7.100\n",
      "  libpostproc    55.  7.100 / 55.  7.100\n",
      "Guessed Channel Layout for Input Stream #0.0 : mono\n",
      "Input #0, wav, from 'a_melon_is_bigger_than_an_apple.wav':\n",
      "  Metadata:\n",
      "    encoder         : SOUND FORGE Pro 12.1\n",
      "    title           : 2134\n",
      "    date            : 2021-10-28\n",
      "    creation_time   : 13-08-25\n",
      "    time_reference  : 310851801\n",
      "    coding_history  : A=PCM,F=44100,W=16,T=SOUND FORGE Pro 12.1, \n",
      "                    : A=Microsoft PCM Format F=44100 W=16 M=mono \n",
      "                    : A=PCM,F=44100,W=16,T=SOUND FORGE Pro 12.1, \n",
      "                    : \n",
      "  Duration: 00:00:02.52, bitrate: 708 kb/s\n",
      "    Stream #0:0: Audio: pcm_s16le ([1][0][0][0] / 0x0001), 44100 Hz, mono, s16, 705 kb/s\n",
      "Stream mapping:\n",
      "  Stream #0:0 -> #0:0 (pcm_s16le (native) -> pcm_s16le (native))\n",
      "Press [q] to stop, [?] for help\n",
      "Output #0, wav, to 'a_melon_is_bigger_than_an_apple.wav.16kHz.mono.wav':\n",
      "  Metadata:\n",
      "    time_reference  : 310851801\n",
      "    INAM            : 2134\n",
      "    ICRD            : 2021-10-28\n",
      "    coding_history  : A=PCM,F=44100,W=16,T=SOUND FORGE Pro 12.1, \n",
      "                    : A=Microsoft PCM Format F=44100 W=16 M=mono \n",
      "                    : A=PCM,F=44100,W=16,T=SOUND FORGE Pro 12.1, \n",
      "                    : \n",
      "    ISFT            : Lavf58.45.100\n",
      "    Stream #0:0: Audio: pcm_s16le ([1][0][0][0] / 0x0001), 16000 Hz, mono, s16, 256 kb/s\n",
      "    Metadata:\n",
      "      encoder         : Lavc58.91.100 pcm_s16le\n",
      "size=      79kB time=00:00:02.52 bitrate= 256.4kbits/s speed= 563x    \n",
      "video:0kB audio:79kB subtitle:0kB other streams:0kB global headers:0kB muxing overhead: 0.138700%\n"
     ]
    },
    {
     "name": "stderr",
     "output_type": "stream",
     "text": [
      "ffmpeg version 4.3.1 Copyright (c) 2000-2020 the FFmpeg developers\n",
      "  built with gcc 10.2.1 (GCC) 20200726\n",
      "  configuration: --disable-static --enable-shared --enable-gpl --enable-version3 --enable-sdl2 --enable-fontconfig --enable-gnutls --enable-iconv --enable-libass --enable-libdav1d --enable-libbluray --enable-libfreetype --enable-libmp3lame --enable-libopencore-amrnb --enable-libopencore-amrwb --enable-libopenjpeg --enable-libopus --enable-libshine --enable-libsnappy --enable-libsoxr --enable-libsrt --enable-libtheora --enable-libtwolame --enable-libvpx --enable-libwavpack --enable-libwebp --enable-libx264 --enable-libx265 --enable-libxml2 --enable-libzimg --enable-lzma --enable-zlib --enable-gmp --enable-libvidstab --enable-libvmaf --enable-libvorbis --enable-libvo-amrwbenc --enable-libmysofa --enable-libspeex --enable-libxvid --enable-libaom --enable-libgsm --enable-librav1e --disable-w32threads --enable-libmfx --enable-ffnvcodec --enable-cuda-llvm --enable-cuvid --enable-d3d11va --enable-nvenc --enable-nvdec --enable-dxva2 --enable-avisynth --enable-libopenmpt --enable-amf\n",
      "  libavutil      56. 51.100 / 56. 51.100\n",
      "  libavcodec     58. 91.100 / 58. 91.100\n",
      "  libavformat    58. 45.100 / 58. 45.100\n",
      "  libavdevice    58. 10.100 / 58. 10.100\n",
      "  libavfilter     7. 85.100 /  7. 85.100\n",
      "  libswscale      5.  7.100 /  5.  7.100\n",
      "  libswresample   3.  7.100 /  3.  7.100\n",
      "  libpostproc    55.  7.100 / 55.  7.100\n",
      "Guessed Channel Layout for Input Stream #0.0 : mono\n",
      "Input #0, wav, from 'a_tiger_is_slower_than_a_zebra.wav':\n",
      "  Metadata:\n",
      "    encoder         : SOUND FORGE Pro 12.1\n",
      "    title           : 2306\n",
      "    date            : 2021-10-28\n",
      "    creation_time   : 13-08-25\n",
      "    time_reference  : 337081587\n",
      "    coding_history  : A=PCM,F=44100,W=16,T=SOUND FORGE Pro 12.1, \n",
      "                    : A=Microsoft PCM Format F=44100 W=16 M=mono \n",
      "                    : A=PCM,F=44100,W=16,T=SOUND FORGE Pro 12.1, \n",
      "                    : \n",
      "  Duration: 00:00:02.56, bitrate: 708 kb/s\n",
      "    Stream #0:0: Audio: pcm_s16le ([1][0][0][0] / 0x0001), 44100 Hz, mono, s16, 705 kb/s\n",
      "Stream mapping:\n",
      "  Stream #0:0 -> #0:0 (pcm_s16le (native) -> pcm_s16le (native))\n",
      "Press [q] to stop, [?] for help\n",
      "Output #0, wav, to 'a_tiger_is_slower_than_a_zebra.wav.16kHz.mono.wav':\n",
      "  Metadata:\n",
      "    time_reference  : 337081587\n",
      "    INAM            : 2306\n",
      "    ICRD            : 2021-10-28\n",
      "    coding_history  : A=PCM,F=44100,W=16,T=SOUND FORGE Pro 12.1, \n",
      "                    : A=Microsoft PCM Format F=44100 W=16 M=mono \n",
      "                    : A=PCM,F=44100,W=16,T=SOUND FORGE Pro 12.1, \n",
      "                    : \n",
      "    ISFT            : Lavf58.45.100\n",
      "    Stream #0:0: Audio: pcm_s16le ([1][0][0][0] / 0x0001), 16000 Hz, mono, s16, 256 kb/s\n",
      "    Metadata:\n",
      "      encoder         : Lavc58.91.100 pcm_s16le\n",
      "size=      80kB time=00:00:02.56 bitrate= 256.4kbits/s speed= 575x    \n",
      "video:0kB audio:80kB subtitle:0kB other streams:0kB global headers:0kB muxing overhead: 0.136719%\n",
      "ffmpeg version 4.3.1 Copyright (c) 2000-2020 the FFmpeg developers\n",
      "  built with gcc 10.2.1 (GCC) 20200726\n",
      "  configuration: --disable-static --enable-shared --enable-gpl --enable-version3 --enable-sdl2 --enable-fontconfig --enable-gnutls --enable-iconv --enable-libass --enable-libdav1d --enable-libbluray --enable-libfreetype --enable-libmp3lame --enable-libopencore-amrnb --enable-libopencore-amrwb --enable-libopenjpeg --enable-libopus --enable-libshine --enable-libsnappy --enable-libsoxr --enable-libsrt --enable-libtheora --enable-libtwolame --enable-libvpx --enable-libwavpack --enable-libwebp --enable-libx264 --enable-libx265 --enable-libxml2 --enable-libzimg --enable-lzma --enable-zlib --enable-gmp --enable-libvidstab --enable-libvmaf --enable-libvorbis --enable-libvo-amrwbenc --enable-libmysofa --enable-libspeex --enable-libxvid --enable-libaom --enable-libgsm --enable-librav1e --disable-w32threads --enable-libmfx --enable-ffnvcodec --enable-cuda-llvm --enable-cuvid --enable-d3d11va --enable-nvenc --enable-nvdec --enable-dxva2 --enable-avisynth --enable-libopenmpt --enable-amf\n",
      "  libavutil      56. 51.100 / 56. 51.100\n",
      "  libavcodec     58. 91.100 / 58. 91.100\n",
      "  libavformat    58. 45.100 / 58. 45.100\n",
      "  libavdevice    58. 10.100 / 58. 10.100\n",
      "  libavfilter     7. 85.100 /  7. 85.100\n",
      "  libswscale      5.  7.100 /  5.  7.100\n",
      "  libswresample   3.  7.100 /  3.  7.100\n",
      "  libpostproc    55.  7.100 / 55.  7.100\n",
      "Guessed Channel Layout for Input Stream #0.0 : mono\n",
      "Input #0, wav, from 'a_watermelon_is_bigger_than_a_melon.wav':\n",
      "  Metadata:\n",
      "    encoder         : SOUND FORGE Pro 12.1\n",
      "    title           : 2300\n",
      "    date            : 2021-10-28\n",
      "    creation_time   : 13-08-25\n",
      "    time_reference  : 337121536\n",
      "    coding_history  : A=PCM,F=44100,W=16,T=SOUND FORGE Pro 12.1, \n",
      "                    : A=Microsoft PCM Format F=44100 W=16 M=mono \n",
      "                    : A=PCM,F=44100,W=16,T=SOUND FORGE Pro 12.1, \n",
      "                    : \n",
      "  Duration: 00:00:02.54, bitrate: 708 kb/s\n",
      "    Stream #0:0: Audio: pcm_s16le ([1][0][0][0] / 0x0001), 44100 Hz, mono, s16, 705 kb/s\n",
      "Stream mapping:\n",
      "  Stream #0:0 -> #0:0 (pcm_s16le (native) -> pcm_s16le (native))\n",
      "Press [q] to stop, [?] for help\n",
      "Output #0, wav, to 'a_watermelon_is_bigger_than_a_melon.wav.16kHz.mono.wav':\n",
      "  Metadata:\n",
      "    time_reference  : 337121536\n",
      "    INAM            : 2300\n",
      "    ICRD            : 2021-10-28\n",
      "    coding_history  : A=PCM,F=44100,W=16,T=SOUND FORGE Pro 12.1, \n",
      "                    : A=Microsoft PCM Format F=44100 W=16 M=mono \n",
      "                    : A=PCM,F=44100,W=16,T=SOUND FORGE Pro 12.1, \n",
      "                    : \n",
      "    ISFT            : Lavf58.45.100\n",
      "    Stream #0:0: Audio: pcm_s16le ([1][0][0][0] / 0x0001), 16000 Hz, mono, s16, 256 kb/s\n",
      "    Metadata:\n",
      "      encoder         : Lavc58.91.100 pcm_s16le\n",
      "size=      79kB time=00:00:02.53 bitrate= 256.4kbits/s speed= 462x    \n",
      "video:0kB audio:79kB subtitle:0kB other streams:0kB global headers:0kB muxing overhead: 0.138033%\n"
     ]
    },
    {
     "name": "stdout",
     "output_type": "stream",
     "text": [
      "디렉토리 :  minju\n",
      "파일명 :  and_you.wav\n",
      "파일명 :  an_elephant_is_heavier_than_a_bear.wav\n",
      "파일명 :  an_elephant_is_heavier_than_a_lion.wav\n",
      "파일명 :  are_you_all_right.wav\n",
      "파일명 :  are_you_a_dancer.wav\n",
      "파일명 :  are_you_a_farmer.wav\n",
      "파일명 :  are_you_a_pilot.wav\n",
      "파일명 :  are_you_a_singer.wav\n",
      "파일명 :  are_you_happy_now.wav\n"
     ]
    },
    {
     "name": "stderr",
     "output_type": "stream",
     "text": [
      "ffmpeg version 4.3.1 Copyright (c) 2000-2020 the FFmpeg developers\n",
      "  built with gcc 10.2.1 (GCC) 20200726\n",
      "  configuration: --disable-static --enable-shared --enable-gpl --enable-version3 --enable-sdl2 --enable-fontconfig --enable-gnutls --enable-iconv --enable-libass --enable-libdav1d --enable-libbluray --enable-libfreetype --enable-libmp3lame --enable-libopencore-amrnb --enable-libopencore-amrwb --enable-libopenjpeg --enable-libopus --enable-libshine --enable-libsnappy --enable-libsoxr --enable-libsrt --enable-libtheora --enable-libtwolame --enable-libvpx --enable-libwavpack --enable-libwebp --enable-libx264 --enable-libx265 --enable-libxml2 --enable-libzimg --enable-lzma --enable-zlib --enable-gmp --enable-libvidstab --enable-libvmaf --enable-libvorbis --enable-libvo-amrwbenc --enable-libmysofa --enable-libspeex --enable-libxvid --enable-libaom --enable-libgsm --enable-librav1e --disable-w32threads --enable-libmfx --enable-ffnvcodec --enable-cuda-llvm --enable-cuvid --enable-d3d11va --enable-nvenc --enable-nvdec --enable-dxva2 --enable-avisynth --enable-libopenmpt --enable-amf\n",
      "  libavutil      56. 51.100 / 56. 51.100\n",
      "  libavcodec     58. 91.100 / 58. 91.100\n",
      "  libavformat    58. 45.100 / 58. 45.100\n",
      "  libavdevice    58. 10.100 / 58. 10.100\n",
      "  libavfilter     7. 85.100 /  7. 85.100\n",
      "  libswscale      5.  7.100 /  5.  7.100\n",
      "  libswresample   3.  7.100 /  3.  7.100\n",
      "  libpostproc    55.  7.100 / 55.  7.100\n",
      "Guessed Channel Layout for Input Stream #0.0 : mono\n",
      "Input #0, wav, from 'a_zebra_is_faster_than_a_giraffe.wav':\n",
      "  Metadata:\n",
      "    encoder         : SOUND FORGE Pro 12.1\n",
      "    title           : 2305\n",
      "    date            : 2021-10-28\n",
      "    creation_time   : 13-08-25\n",
      "    time_reference  : 336900953\n",
      "    coding_history  : A=PCM,F=44100,W=16,T=SOUND FORGE Pro 12.1, \n",
      "                    : A=Microsoft PCM Format F=44100 W=16 M=mono \n",
      "                    : A=PCM,F=44100,W=16,T=SOUND FORGE Pro 12.1, \n",
      "                    : \n",
      "  Duration: 00:00:02.67, bitrate: 708 kb/s\n",
      "    Stream #0:0: Audio: pcm_s16le ([1][0][0][0] / 0x0001), 44100 Hz, mono, s16, 705 kb/s\n",
      "Stream mapping:\n",
      "  Stream #0:0 -> #0:0 (pcm_s16le (native) -> pcm_s16le (native))\n",
      "Press [q] to stop, [?] for help\n",
      "Output #0, wav, to 'a_zebra_is_faster_than_a_giraffe.wav.16kHz.mono.wav':\n",
      "  Metadata:\n",
      "    time_reference  : 336900953\n",
      "    INAM            : 2305\n",
      "    ICRD            : 2021-10-28\n",
      "    coding_history  : A=PCM,F=44100,W=16,T=SOUND FORGE Pro 12.1, \n",
      "                    : A=Microsoft PCM Format F=44100 W=16 M=mono \n",
      "                    : A=PCM,F=44100,W=16,T=SOUND FORGE Pro 12.1, \n",
      "                    : \n",
      "    ISFT            : Lavf58.45.100\n",
      "    Stream #0:0: Audio: pcm_s16le ([1][0][0][0] / 0x0001), 16000 Hz, mono, s16, 256 kb/s\n",
      "    Metadata:\n",
      "      encoder         : Lavc58.91.100 pcm_s16le\n",
      "size=      84kB time=00:00:02.66 bitrate= 256.3kbits/s speed= 522x    \n",
      "video:0kB audio:83kB subtitle:0kB other streams:0kB global headers:0kB muxing overhead: 0.131101%\n",
      "ffmpeg version 4.3.1 Copyright (c) 2000-2020 the FFmpeg developers\n",
      "  built with gcc 10.2.1 (GCC) 20200726\n",
      "  configuration: --disable-static --enable-shared --enable-gpl --enable-version3 --enable-sdl2 --enable-fontconfig --enable-gnutls --enable-iconv --enable-libass --enable-libdav1d --enable-libbluray --enable-libfreetype --enable-libmp3lame --enable-libopencore-amrnb --enable-libopencore-amrwb --enable-libopenjpeg --enable-libopus --enable-libshine --enable-libsnappy --enable-libsoxr --enable-libsrt --enable-libtheora --enable-libtwolame --enable-libvpx --enable-libwavpack --enable-libwebp --enable-libx264 --enable-libx265 --enable-libxml2 --enable-libzimg --enable-lzma --enable-zlib --enable-gmp --enable-libvidstab --enable-libvmaf --enable-libvorbis --enable-libvo-amrwbenc --enable-libmysofa --enable-libspeex --enable-libxvid --enable-libaom --enable-libgsm --enable-librav1e --disable-w32threads --enable-libmfx --enable-ffnvcodec --enable-cuda-llvm --enable-cuvid --enable-d3d11va --enable-nvenc --enable-nvdec --enable-dxva2 --enable-avisynth --enable-libopenmpt --enable-amf\n",
      "  libavutil      56. 51.100 / 56. 51.100\n",
      "  libavcodec     58. 91.100 / 58. 91.100\n",
      "  libavformat    58. 45.100 / 58. 45.100\n",
      "  libavdevice    58. 10.100 / 58. 10.100\n",
      "  libavfilter     7. 85.100 /  7. 85.100\n",
      "  libswscale      5.  7.100 /  5.  7.100\n",
      "  libswresample   3.  7.100 /  3.  7.100\n",
      "  libpostproc    55.  7.100 / 55.  7.100\n",
      "Guessed Channel Layout for Input Stream #0.0 : mono\n",
      "Input #0, wav, from 'and_you.wav':\n",
      "  Metadata:\n",
      "    encoder         : SOUND FORGE Pro 12.1\n",
      "    title           : 321\n",
      "    date            : 2021-10-28\n",
      "    creation_time   : 13-08-25\n",
      "    time_reference  : 48565452\n",
      "    coding_history  : A=PCM,F=44100,W=16,T=SOUND FORGE Pro 12.1, \n",
      "                    : A=Microsoft PCM Format F=44100 W=16 M=mono \n",
      "                    : A=PCM,F=44100,W=16,T=SOUND FORGE Pro 12.1, \n",
      "                    : \n",
      "  Duration: 00:00:01.30, bitrate: 710 kb/s\n",
      "    Stream #0:0: Audio: pcm_s16le ([1][0][0][0] / 0x0001), 44100 Hz, mono, s16, 705 kb/s\n",
      "Stream mapping:\n",
      "  Stream #0:0 -> #0:0 (pcm_s16le (native) -> pcm_s16le (native))\n",
      "Press [q] to stop, [?] for help\n",
      "Output #0, wav, to 'and_you.wav.16kHz.mono.wav':\n",
      "  Metadata:\n",
      "    time_reference  : 48565452\n",
      "    INAM            : 321\n",
      "    ICRD            : 2021-10-28\n",
      "    coding_history  : A=PCM,F=44100,W=16,T=SOUND FORGE Pro 12.1, \n",
      "                    : A=Microsoft PCM Format F=44100 W=16 M=mono \n",
      "                    : A=PCM,F=44100,W=16,T=SOUND FORGE Pro 12.1, \n",
      "                    : \n",
      "    ISFT            : Lavf58.45.100\n",
      "    Stream #0:0: Audio: pcm_s16le ([1][0][0][0] / 0x0001), 16000 Hz, mono, s16, 256 kb/s\n",
      "    Metadata:\n",
      "      encoder         : Lavc58.91.100 pcm_s16le\n",
      "size=      41kB time=00:00:01.29 bitrate= 256.7kbits/s speed= 302x    \n",
      "video:0kB audio:41kB subtitle:0kB other streams:0kB global headers:0kB muxing overhead: 0.264767%\n",
      "ffmpeg version 4.3.1 Copyright (c) 2000-2020 the FFmpeg developers\n",
      "  built with gcc 10.2.1 (GCC) 20200726\n",
      "  configuration: --disable-static --enable-shared --enable-gpl --enable-version3 --enable-sdl2 --enable-fontconfig --enable-gnutls --enable-iconv --enable-libass --enable-libdav1d --enable-libbluray --enable-libfreetype --enable-libmp3lame --enable-libopencore-amrnb --enable-libopencore-amrwb --enable-libopenjpeg --enable-libopus --enable-libshine --enable-libsnappy --enable-libsoxr --enable-libsrt --enable-libtheora --enable-libtwolame --enable-libvpx --enable-libwavpack --enable-libwebp --enable-libx264 --enable-libx265 --enable-libxml2 --enable-libzimg --enable-lzma --enable-zlib --enable-gmp --enable-libvidstab --enable-libvmaf --enable-libvorbis --enable-libvo-amrwbenc --enable-libmysofa --enable-libspeex --enable-libxvid --enable-libaom --enable-libgsm --enable-librav1e --disable-w32threads --enable-libmfx --enable-ffnvcodec --enable-cuda-llvm --enable-cuvid --enable-d3d11va --enable-nvenc --enable-nvdec --enable-dxva2 --enable-avisynth --enable-libopenmpt --enable-amf\n",
      "  libavutil      56. 51.100 / 56. 51.100\n",
      "  libavcodec     58. 91.100 / 58. 91.100\n",
      "  libavformat    58. 45.100 / 58. 45.100\n",
      "  libavdevice    58. 10.100 / 58. 10.100\n",
      "  libavfilter     7. 85.100 /  7. 85.100\n",
      "  libswscale      5.  7.100 /  5.  7.100\n",
      "  libswresample   3.  7.100 /  3.  7.100\n",
      "  libpostproc    55.  7.100 / 55.  7.100\n",
      "Guessed Channel Layout for Input Stream #0.0 : mono\n",
      "Input #0, wav, from 'an_elephant_is_heavier_than_a_bear.wav':\n",
      "  Metadata:\n",
      "    encoder         : SOUND FORGE Pro 12.1\n",
      "    title           : 2307\n",
      "    date            : 2021-10-28\n",
      "    creation_time   : 13-08-25\n",
      "    time_reference  : 337261414\n",
      "    coding_history  : A=PCM,F=44100,W=16,T=SOUND FORGE Pro 12.1, \n",
      "                    : A=Microsoft PCM Format F=44100 W=16 M=mono \n",
      "                    : A=PCM,F=44100,W=16,T=SOUND FORGE Pro 12.1, \n",
      "                    : \n",
      "  Duration: 00:00:03.13, bitrate: 707 kb/s\n",
      "    Stream #0:0: Audio: pcm_s16le ([1][0][0][0] / 0x0001), 44100 Hz, mono, s16, 705 kb/s\n",
      "Stream mapping:\n",
      "  Stream #0:0 -> #0:0 (pcm_s16le (native) -> pcm_s16le (native))\n",
      "Press [q] to stop, [?] for help\n",
      "Output #0, wav, to 'an_elephant_is_heavier_than_a_bear.wav.16kHz.mono.wav':\n",
      "  Metadata:\n",
      "    time_reference  : 337261414\n",
      "    INAM            : 2307\n",
      "    ICRD            : 2021-10-28\n",
      "    coding_history  : A=PCM,F=44100,W=16,T=SOUND FORGE Pro 12.1, \n",
      "                    : A=Microsoft PCM Format F=44100 W=16 M=mono \n",
      "                    : A=PCM,F=44100,W=16,T=SOUND FORGE Pro 12.1, \n",
      "                    : \n",
      "    ISFT            : Lavf58.45.100\n",
      "    Stream #0:0: Audio: pcm_s16le ([1][0][0][0] / 0x0001), 16000 Hz, mono, s16, 256 kb/s\n",
      "    Metadata:\n",
      "      encoder         : Lavc58.91.100 pcm_s16le\n",
      "size=      98kB time=00:00:03.12 bitrate= 256.3kbits/s speed= 678x    \n",
      "video:0kB audio:98kB subtitle:0kB other streams:0kB global headers:0kB muxing overhead: 0.111933%\n"
     ]
    },
    {
     "name": "stderr",
     "output_type": "stream",
     "text": [
      "ffmpeg version 4.3.1 Copyright (c) 2000-2020 the FFmpeg developers\n",
      "  built with gcc 10.2.1 (GCC) 20200726\n",
      "  configuration: --disable-static --enable-shared --enable-gpl --enable-version3 --enable-sdl2 --enable-fontconfig --enable-gnutls --enable-iconv --enable-libass --enable-libdav1d --enable-libbluray --enable-libfreetype --enable-libmp3lame --enable-libopencore-amrnb --enable-libopencore-amrwb --enable-libopenjpeg --enable-libopus --enable-libshine --enable-libsnappy --enable-libsoxr --enable-libsrt --enable-libtheora --enable-libtwolame --enable-libvpx --enable-libwavpack --enable-libwebp --enable-libx264 --enable-libx265 --enable-libxml2 --enable-libzimg --enable-lzma --enable-zlib --enable-gmp --enable-libvidstab --enable-libvmaf --enable-libvorbis --enable-libvo-amrwbenc --enable-libmysofa --enable-libspeex --enable-libxvid --enable-libaom --enable-libgsm --enable-librav1e --disable-w32threads --enable-libmfx --enable-ffnvcodec --enable-cuda-llvm --enable-cuvid --enable-d3d11va --enable-nvenc --enable-nvdec --enable-dxva2 --enable-avisynth --enable-libopenmpt --enable-amf\n",
      "  libavutil      56. 51.100 / 56. 51.100\n",
      "  libavcodec     58. 91.100 / 58. 91.100\n",
      "  libavformat    58. 45.100 / 58. 45.100\n",
      "  libavdevice    58. 10.100 / 58. 10.100\n",
      "  libavfilter     7. 85.100 /  7. 85.100\n",
      "  libswscale      5.  7.100 /  5.  7.100\n",
      "  libswresample   3.  7.100 /  3.  7.100\n",
      "  libpostproc    55.  7.100 / 55.  7.100\n",
      "Guessed Channel Layout for Input Stream #0.0 : mono\n",
      "Input #0, wav, from 'an_elephant_is_heavier_than_a_lion.wav':\n",
      "  Metadata:\n",
      "    encoder         : SOUND FORGE Pro 12.1\n",
      "    title           : 1956\n",
      "    date            : 2021-10-28\n",
      "    creation_time   : 13-08-25\n",
      "    time_reference  : 282395641\n",
      "    coding_history  : A=PCM,F=44100,W=16,T=SOUND FORGE Pro 12.1, \n",
      "                    : A=Microsoft PCM Format F=44100 W=16 M=mono \n",
      "                    : A=PCM,F=44100,W=16,T=SOUND FORGE Pro 12.1, \n",
      "                    : \n",
      "  Duration: 00:00:02.93, bitrate: 707 kb/s\n",
      "    Stream #0:0: Audio: pcm_s16le ([1][0][0][0] / 0x0001), 44100 Hz, mono, s16, 705 kb/s\n",
      "Stream mapping:\n",
      "  Stream #0:0 -> #0:0 (pcm_s16le (native) -> pcm_s16le (native))\n",
      "Press [q] to stop, [?] for help\n",
      "Output #0, wav, to 'an_elephant_is_heavier_than_a_lion.wav.16kHz.mono.wav':\n",
      "  Metadata:\n",
      "    time_reference  : 282395641\n",
      "    INAM            : 1956\n",
      "    ICRD            : 2021-10-28\n",
      "    coding_history  : A=PCM,F=44100,W=16,T=SOUND FORGE Pro 12.1, \n",
      "                    : A=Microsoft PCM Format F=44100 W=16 M=mono \n",
      "                    : A=PCM,F=44100,W=16,T=SOUND FORGE Pro 12.1, \n",
      "                    : \n",
      "    ISFT            : Lavf58.45.100\n",
      "    Stream #0:0: Audio: pcm_s16le ([1][0][0][0] / 0x0001), 16000 Hz, mono, s16, 256 kb/s\n",
      "    Metadata:\n",
      "      encoder         : Lavc58.91.100 pcm_s16le\n",
      "size=      92kB time=00:00:02.92 bitrate= 256.3kbits/s speed= 534x    \n",
      "video:0kB audio:91kB subtitle:0kB other streams:0kB global headers:0kB muxing overhead: 0.119630%\n",
      "ffmpeg version 4.3.1 Copyright (c) 2000-2020 the FFmpeg developers\n",
      "  built with gcc 10.2.1 (GCC) 20200726\n",
      "  configuration: --disable-static --enable-shared --enable-gpl --enable-version3 --enable-sdl2 --enable-fontconfig --enable-gnutls --enable-iconv --enable-libass --enable-libdav1d --enable-libbluray --enable-libfreetype --enable-libmp3lame --enable-libopencore-amrnb --enable-libopencore-amrwb --enable-libopenjpeg --enable-libopus --enable-libshine --enable-libsnappy --enable-libsoxr --enable-libsrt --enable-libtheora --enable-libtwolame --enable-libvpx --enable-libwavpack --enable-libwebp --enable-libx264 --enable-libx265 --enable-libxml2 --enable-libzimg --enable-lzma --enable-zlib --enable-gmp --enable-libvidstab --enable-libvmaf --enable-libvorbis --enable-libvo-amrwbenc --enable-libmysofa --enable-libspeex --enable-libxvid --enable-libaom --enable-libgsm --enable-librav1e --disable-w32threads --enable-libmfx --enable-ffnvcodec --enable-cuda-llvm --enable-cuvid --enable-d3d11va --enable-nvenc --enable-nvdec --enable-dxva2 --enable-avisynth --enable-libopenmpt --enable-amf\n",
      "  libavutil      56. 51.100 / 56. 51.100\n",
      "  libavcodec     58. 91.100 / 58. 91.100\n",
      "  libavformat    58. 45.100 / 58. 45.100\n",
      "  libavdevice    58. 10.100 / 58. 10.100\n",
      "  libavfilter     7. 85.100 /  7. 85.100\n",
      "  libswscale      5.  7.100 /  5.  7.100\n",
      "  libswresample   3.  7.100 /  3.  7.100\n",
      "  libpostproc    55.  7.100 / 55.  7.100\n",
      "Guessed Channel Layout for Input Stream #0.0 : mono\n",
      "Input #0, wav, from 'are_you_all_right.wav':\n",
      "  Metadata:\n",
      "    encoder         : SOUND FORGE Pro 12.1\n",
      "    title           : 336\n",
      "    date            : 2021-10-28\n",
      "    creation_time   : 13-08-25\n",
      "    time_reference  : 50709132\n",
      "    coding_history  : A=PCM,F=44100,W=16,T=SOUND FORGE Pro 12.1, \n",
      "                    : A=Microsoft PCM Format F=44100 W=16 M=mono \n",
      "                    : A=PCM,F=44100,W=16,T=SOUND FORGE Pro 12.1, \n",
      "                    : \n",
      "  Duration: 00:00:01.27, bitrate: 710 kb/s\n",
      "    Stream #0:0: Audio: pcm_s16le ([1][0][0][0] / 0x0001), 44100 Hz, mono, s16, 705 kb/s\n",
      "Stream mapping:\n",
      "  Stream #0:0 -> #0:0 (pcm_s16le (native) -> pcm_s16le (native))\n",
      "Press [q] to stop, [?] for help\n",
      "Output #0, wav, to 'are_you_all_right.wav.16kHz.mono.wav':\n",
      "  Metadata:\n",
      "    time_reference  : 50709132\n",
      "    INAM            : 336\n",
      "    ICRD            : 2021-10-28\n",
      "    coding_history  : A=PCM,F=44100,W=16,T=SOUND FORGE Pro 12.1, \n",
      "                    : A=Microsoft PCM Format F=44100 W=16 M=mono \n",
      "                    : A=PCM,F=44100,W=16,T=SOUND FORGE Pro 12.1, \n",
      "                    : \n",
      "    ISFT            : Lavf58.45.100\n",
      "    Stream #0:0: Audio: pcm_s16le ([1][0][0][0] / 0x0001), 16000 Hz, mono, s16, 256 kb/s\n",
      "    Metadata:\n",
      "      encoder         : Lavc58.91.100 pcm_s16le\n",
      "size=      40kB time=00:00:01.27 bitrate= 256.7kbits/s speed= 268x    \n",
      "video:0kB audio:40kB subtitle:0kB other streams:0kB global headers:0kB muxing overhead: 0.269833%\n",
      "ffmpeg version 4.3.1 Copyright (c) 2000-2020 the FFmpeg developers\n",
      "  built with gcc 10.2.1 (GCC) 20200726\n",
      "  configuration: --disable-static --enable-shared --enable-gpl --enable-version3 --enable-sdl2 --enable-fontconfig --enable-gnutls --enable-iconv --enable-libass --enable-libdav1d --enable-libbluray --enable-libfreetype --enable-libmp3lame --enable-libopencore-amrnb --enable-libopencore-amrwb --enable-libopenjpeg --enable-libopus --enable-libshine --enable-libsnappy --enable-libsoxr --enable-libsrt --enable-libtheora --enable-libtwolame --enable-libvpx --enable-libwavpack --enable-libwebp --enable-libx264 --enable-libx265 --enable-libxml2 --enable-libzimg --enable-lzma --enable-zlib --enable-gmp --enable-libvidstab --enable-libvmaf --enable-libvorbis --enable-libvo-amrwbenc --enable-libmysofa --enable-libspeex --enable-libxvid --enable-libaom --enable-libgsm --enable-librav1e --disable-w32threads --enable-libmfx --enable-ffnvcodec --enable-cuda-llvm --enable-cuvid --enable-d3d11va --enable-nvenc --enable-nvdec --enable-dxva2 --enable-avisynth --enable-libopenmpt --enable-amf\n",
      "  libavutil      56. 51.100 / 56. 51.100\n",
      "  libavcodec     58. 91.100 / 58. 91.100\n",
      "  libavformat    58. 45.100 / 58. 45.100\n",
      "  libavdevice    58. 10.100 / 58. 10.100\n",
      "  libavfilter     7. 85.100 /  7. 85.100\n",
      "  libswscale      5.  7.100 /  5.  7.100\n",
      "  libswresample   3.  7.100 /  3.  7.100\n",
      "  libpostproc    55.  7.100 / 55.  7.100\n",
      "Guessed Channel Layout for Input Stream #0.0 : mono\n",
      "Input #0, wav, from 'are_you_a_dancer.wav':\n",
      "  Metadata:\n",
      "    encoder         : SOUND FORGE Pro 12.1\n",
      "    title           : 249\n",
      "    date            : 2021-10-28\n",
      "    creation_time   : 13-08-25\n",
      "    time_reference  : 37195699\n",
      "    coding_history  : A=PCM,F=44100,W=16,T=SOUND FORGE Pro 12.1, \n",
      "                    : A=Microsoft PCM Format F=44100 W=16 M=mono \n",
      "                    : A=PCM,F=44100,W=16,T=SOUND FORGE Pro 12.1, \n",
      "                    : \n",
      "  Duration: 00:00:02.10, bitrate: 708 kb/s\n",
      "    Stream #0:0: Audio: pcm_s16le ([1][0][0][0] / 0x0001), 44100 Hz, mono, s16, 705 kb/s\n",
      "Stream mapping:\n",
      "  Stream #0:0 -> #0:0 (pcm_s16le (native) -> pcm_s16le (native))\n",
      "Press [q] to stop, [?] for help\n",
      "Output #0, wav, to 'are_you_a_dancer.wav.16kHz.mono.wav':\n",
      "  Metadata:\n",
      "    time_reference  : 37195699\n",
      "    INAM            : 249\n",
      "    ICRD            : 2021-10-28\n",
      "    coding_history  : A=PCM,F=44100,W=16,T=SOUND FORGE Pro 12.1, \n",
      "                    : A=Microsoft PCM Format F=44100 W=16 M=mono \n",
      "                    : A=PCM,F=44100,W=16,T=SOUND FORGE Pro 12.1, \n",
      "                    : \n",
      "    ISFT            : Lavf58.45.100\n",
      "    Stream #0:0: Audio: pcm_s16le ([1][0][0][0] / 0x0001), 16000 Hz, mono, s16, 256 kb/s\n",
      "    Metadata:\n",
      "      encoder         : Lavc58.91.100 pcm_s16le\n",
      "size=      66kB time=00:00:02.09 bitrate= 256.4kbits/s speed= 414x    \n",
      "video:0kB audio:66kB subtitle:0kB other streams:0kB global headers:0kB muxing overhead: 0.163944%\n"
     ]
    },
    {
     "name": "stderr",
     "output_type": "stream",
     "text": [
      "ffmpeg version 4.3.1 Copyright (c) 2000-2020 the FFmpeg developers\n",
      "  built with gcc 10.2.1 (GCC) 20200726\n",
      "  configuration: --disable-static --enable-shared --enable-gpl --enable-version3 --enable-sdl2 --enable-fontconfig --enable-gnutls --enable-iconv --enable-libass --enable-libdav1d --enable-libbluray --enable-libfreetype --enable-libmp3lame --enable-libopencore-amrnb --enable-libopencore-amrwb --enable-libopenjpeg --enable-libopus --enable-libshine --enable-libsnappy --enable-libsoxr --enable-libsrt --enable-libtheora --enable-libtwolame --enable-libvpx --enable-libwavpack --enable-libwebp --enable-libx264 --enable-libx265 --enable-libxml2 --enable-libzimg --enable-lzma --enable-zlib --enable-gmp --enable-libvidstab --enable-libvmaf --enable-libvorbis --enable-libvo-amrwbenc --enable-libmysofa --enable-libspeex --enable-libxvid --enable-libaom --enable-libgsm --enable-librav1e --disable-w32threads --enable-libmfx --enable-ffnvcodec --enable-cuda-llvm --enable-cuvid --enable-d3d11va --enable-nvenc --enable-nvdec --enable-dxva2 --enable-avisynth --enable-libopenmpt --enable-amf\n",
      "  libavutil      56. 51.100 / 56. 51.100\n",
      "  libavcodec     58. 91.100 / 58. 91.100\n",
      "  libavformat    58. 45.100 / 58. 45.100\n",
      "  libavdevice    58. 10.100 / 58. 10.100\n",
      "  libavfilter     7. 85.100 /  7. 85.100\n",
      "  libswscale      5.  7.100 /  5.  7.100\n",
      "  libswresample   3.  7.100 /  3.  7.100\n",
      "  libpostproc    55.  7.100 / 55.  7.100\n",
      "Guessed Channel Layout for Input Stream #0.0 : mono\n",
      "Input #0, wav, from 'are_you_a_farmer.wav':\n",
      "  Metadata:\n",
      "    encoder         : SOUND FORGE Pro 15.0;SOUND FORGE Pro 12.1\n",
      "    title           : 2589\n",
      "    date            : 2021-11-02\n",
      "    creation_time   : 09-25-09\n",
      "    time_reference  : 414834581\n",
      "    coding_history  : A=PCM,F=48000,W=24,T=SOUND FORGE Pro 12.1, \n",
      "                    : A=Microsoft PCM Format F=44100 W=16 M=mono \n",
      "                    : A=PCM,F=44100,W=16,T=SOUND FORGE Pro 12.1, \n",
      "                    : \n",
      "  Duration: 00:00:02.05, bitrate: 709 kb/s\n",
      "    Stream #0:0: Audio: pcm_s16le ([1][0][0][0] / 0x0001), 44100 Hz, mono, s16, 705 kb/s\n",
      "Stream mapping:\n",
      "  Stream #0:0 -> #0:0 (pcm_s16le (native) -> pcm_s16le (native))\n",
      "Press [q] to stop, [?] for help\n",
      "Output #0, wav, to 'are_you_a_farmer.wav.16kHz.mono.wav':\n",
      "  Metadata:\n",
      "    time_reference  : 414834581\n",
      "    INAM            : 2589\n",
      "    ICRD            : 2021-11-02\n",
      "    coding_history  : A=PCM,F=48000,W=24,T=SOUND FORGE Pro 12.1, \n",
      "                    : A=Microsoft PCM Format F=44100 W=16 M=mono \n",
      "                    : A=PCM,F=44100,W=16,T=SOUND FORGE Pro 12.1, \n",
      "                    : \n",
      "    ISFT            : Lavf58.45.100\n",
      "    Stream #0:0: Audio: pcm_s16le ([1][0][0][0] / 0x0001), 16000 Hz, mono, s16, 256 kb/s\n",
      "    Metadata:\n",
      "      encoder         : Lavc58.91.100 pcm_s16le\n",
      "size=      64kB time=00:00:02.04 bitrate= 256.4kbits/s speed= 432x    \n",
      "video:0kB audio:64kB subtitle:0kB other streams:0kB global headers:0kB muxing overhead: 0.170898%\n",
      "ffmpeg version 4.3.1 Copyright (c) 2000-2020 the FFmpeg developers\n",
      "  built with gcc 10.2.1 (GCC) 20200726\n",
      "  configuration: --disable-static --enable-shared --enable-gpl --enable-version3 --enable-sdl2 --enable-fontconfig --enable-gnutls --enable-iconv --enable-libass --enable-libdav1d --enable-libbluray --enable-libfreetype --enable-libmp3lame --enable-libopencore-amrnb --enable-libopencore-amrwb --enable-libopenjpeg --enable-libopus --enable-libshine --enable-libsnappy --enable-libsoxr --enable-libsrt --enable-libtheora --enable-libtwolame --enable-libvpx --enable-libwavpack --enable-libwebp --enable-libx264 --enable-libx265 --enable-libxml2 --enable-libzimg --enable-lzma --enable-zlib --enable-gmp --enable-libvidstab --enable-libvmaf --enable-libvorbis --enable-libvo-amrwbenc --enable-libmysofa --enable-libspeex --enable-libxvid --enable-libaom --enable-libgsm --enable-librav1e --disable-w32threads --enable-libmfx --enable-ffnvcodec --enable-cuda-llvm --enable-cuvid --enable-d3d11va --enable-nvenc --enable-nvdec --enable-dxva2 --enable-avisynth --enable-libopenmpt --enable-amf\n",
      "  libavutil      56. 51.100 / 56. 51.100\n",
      "  libavcodec     58. 91.100 / 58. 91.100\n",
      "  libavformat    58. 45.100 / 58. 45.100\n",
      "  libavdevice    58. 10.100 / 58. 10.100\n",
      "  libavfilter     7. 85.100 /  7. 85.100\n",
      "  libswscale      5.  7.100 /  5.  7.100\n",
      "  libswresample   3.  7.100 /  3.  7.100\n",
      "  libpostproc    55.  7.100 / 55.  7.100\n",
      "Guessed Channel Layout for Input Stream #0.0 : mono\n",
      "Input #0, wav, from 'are_you_a_pilot.wav':\n",
      "  Metadata:\n",
      "    encoder         : SOUND FORGE Pro 12.1\n",
      "    title           : 251\n",
      "    date            : 2021-10-28\n",
      "    creation_time   : 13-08-25\n",
      "    time_reference  : 37488153\n",
      "    coding_history  : A=PCM,F=44100,W=16,T=SOUND FORGE Pro 12.1, \n",
      "                    : A=Microsoft PCM Format F=44100 W=16 M=mono \n",
      "                    : A=PCM,F=44100,W=16,T=SOUND FORGE Pro 12.1, \n",
      "                    : \n",
      "  Duration: 00:00:01.56, bitrate: 709 kb/s\n",
      "    Stream #0:0: Audio: pcm_s16le ([1][0][0][0] / 0x0001), 44100 Hz, mono, s16, 705 kb/s\n",
      "Stream mapping:\n",
      "  Stream #0:0 -> #0:0 (pcm_s16le (native) -> pcm_s16le (native))\n",
      "Press [q] to stop, [?] for help\n",
      "Output #0, wav, to 'are_you_a_pilot.wav.16kHz.mono.wav':\n",
      "  Metadata:\n",
      "    time_reference  : 37488153\n",
      "    INAM            : 251\n",
      "    ICRD            : 2021-10-28\n",
      "    coding_history  : A=PCM,F=44100,W=16,T=SOUND FORGE Pro 12.1, \n",
      "                    : A=Microsoft PCM Format F=44100 W=16 M=mono \n",
      "                    : A=PCM,F=44100,W=16,T=SOUND FORGE Pro 12.1, \n",
      "                    : \n",
      "    ISFT            : Lavf58.45.100\n",
      "    Stream #0:0: Audio: pcm_s16le ([1][0][0][0] / 0x0001), 16000 Hz, mono, s16, 256 kb/s\n",
      "    Metadata:\n",
      "      encoder         : Lavc58.91.100 pcm_s16le\n",
      "size=      49kB time=00:00:01.56 bitrate= 256.6kbits/s speed=300x    \n",
      "video:0kB audio:49kB subtitle:0kB other streams:0kB global headers:0kB muxing overhead: 0.220300%\n",
      "ffmpeg version 4.3.1 Copyright (c) 2000-2020 the FFmpeg developers\n",
      "  built with gcc 10.2.1 (GCC) 20200726\n",
      "  configuration: --disable-static --enable-shared --enable-gpl --enable-version3 --enable-sdl2 --enable-fontconfig --enable-gnutls --enable-iconv --enable-libass --enable-libdav1d --enable-libbluray --enable-libfreetype --enable-libmp3lame --enable-libopencore-amrnb --enable-libopencore-amrwb --enable-libopenjpeg --enable-libopus --enable-libshine --enable-libsnappy --enable-libsoxr --enable-libsrt --enable-libtheora --enable-libtwolame --enable-libvpx --enable-libwavpack --enable-libwebp --enable-libx264 --enable-libx265 --enable-libxml2 --enable-libzimg --enable-lzma --enable-zlib --enable-gmp --enable-libvidstab --enable-libvmaf --enable-libvorbis --enable-libvo-amrwbenc --enable-libmysofa --enable-libspeex --enable-libxvid --enable-libaom --enable-libgsm --enable-librav1e --disable-w32threads --enable-libmfx --enable-ffnvcodec --enable-cuda-llvm --enable-cuvid --enable-d3d11va --enable-nvenc --enable-nvdec --enable-dxva2 --enable-avisynth --enable-libopenmpt --enable-amf\n",
      "  libavutil      56. 51.100 / 56. 51.100\n",
      "  libavcodec     58. 91.100 / 58. 91.100\n",
      "  libavformat    58. 45.100 / 58. 45.100\n",
      "  libavdevice    58. 10.100 / 58. 10.100\n",
      "  libavfilter     7. 85.100 /  7. 85.100\n",
      "  libswscale      5.  7.100 /  5.  7.100\n",
      "  libswresample   3.  7.100 /  3.  7.100\n",
      "  libpostproc    55.  7.100 / 55.  7.100\n",
      "Guessed Channel Layout for Input Stream #0.0 : mono\n",
      "Input #0, wav, from 'are_you_a_singer.wav':\n",
      "  Metadata:\n",
      "    encoder         : SOUND FORGE Pro 12.1\n",
      "    title           : 250\n",
      "    date            : 2021-10-28\n",
      "    creation_time   : 13-08-25\n",
      "    time_reference  : 37348377\n",
      "    coding_history  : A=PCM,F=44100,W=16,T=SOUND FORGE Pro 12.1, \n",
      "                    : A=Microsoft PCM Format F=44100 W=16 M=mono \n",
      "                    : A=PCM,F=44100,W=16,T=SOUND FORGE Pro 12.1, \n",
      "                    : \n",
      "  Duration: 00:00:01.78, bitrate: 709 kb/s\n",
      "    Stream #0:0: Audio: pcm_s16le ([1][0][0][0] / 0x0001), 44100 Hz, mono, s16, 705 kb/s\n",
      "Stream mapping:\n",
      "  Stream #0:0 -> #0:0 (pcm_s16le (native) -> pcm_s16le (native))\n",
      "Press [q] to stop, [?] for help\n",
      "Output #0, wav, to 'are_you_a_singer.wav.16kHz.mono.wav':\n",
      "  Metadata:\n",
      "    time_reference  : 37348377\n",
      "    INAM            : 250\n",
      "    ICRD            : 2021-10-28\n",
      "    coding_history  : A=PCM,F=44100,W=16,T=SOUND FORGE Pro 12.1, \n",
      "                    : A=Microsoft PCM Format F=44100 W=16 M=mono \n",
      "                    : A=PCM,F=44100,W=16,T=SOUND FORGE Pro 12.1, \n",
      "                    : \n",
      "    ISFT            : Lavf58.45.100\n",
      "    Stream #0:0: Audio: pcm_s16le ([1][0][0][0] / 0x0001), 16000 Hz, mono, s16, 256 kb/s\n",
      "    Metadata:\n",
      "      encoder         : Lavc58.91.100 pcm_s16le\n",
      "size=      56kB time=00:00:01.77 bitrate= 256.5kbits/s speed= 385x    \n",
      "video:0kB audio:56kB subtitle:0kB other streams:0kB global headers:0kB muxing overhead: 0.193138%\n"
     ]
    },
    {
     "name": "stdout",
     "output_type": "stream",
     "text": [
      "21 개 wav파일 변환 완료\n"
     ]
    },
    {
     "name": "stderr",
     "output_type": "stream",
     "text": [
      "ffmpeg version 4.3.1 Copyright (c) 2000-2020 the FFmpeg developers\n",
      "  built with gcc 10.2.1 (GCC) 20200726\n",
      "  configuration: --disable-static --enable-shared --enable-gpl --enable-version3 --enable-sdl2 --enable-fontconfig --enable-gnutls --enable-iconv --enable-libass --enable-libdav1d --enable-libbluray --enable-libfreetype --enable-libmp3lame --enable-libopencore-amrnb --enable-libopencore-amrwb --enable-libopenjpeg --enable-libopus --enable-libshine --enable-libsnappy --enable-libsoxr --enable-libsrt --enable-libtheora --enable-libtwolame --enable-libvpx --enable-libwavpack --enable-libwebp --enable-libx264 --enable-libx265 --enable-libxml2 --enable-libzimg --enable-lzma --enable-zlib --enable-gmp --enable-libvidstab --enable-libvmaf --enable-libvorbis --enable-libvo-amrwbenc --enable-libmysofa --enable-libspeex --enable-libxvid --enable-libaom --enable-libgsm --enable-librav1e --disable-w32threads --enable-libmfx --enable-ffnvcodec --enable-cuda-llvm --enable-cuvid --enable-d3d11va --enable-nvenc --enable-nvdec --enable-dxva2 --enable-avisynth --enable-libopenmpt --enable-amf\n",
      "  libavutil      56. 51.100 / 56. 51.100\n",
      "  libavcodec     58. 91.100 / 58. 91.100\n",
      "  libavformat    58. 45.100 / 58. 45.100\n",
      "  libavdevice    58. 10.100 / 58. 10.100\n",
      "  libavfilter     7. 85.100 /  7. 85.100\n",
      "  libswscale      5.  7.100 /  5.  7.100\n",
      "  libswresample   3.  7.100 /  3.  7.100\n",
      "  libpostproc    55.  7.100 / 55.  7.100\n",
      "Guessed Channel Layout for Input Stream #0.0 : mono\n",
      "Input #0, wav, from 'are_you_happy_now.wav':\n",
      "  Metadata:\n",
      "    encoder         : SOUND FORGE Pro 12.1\n",
      "    title           : 190\n",
      "    date            : 2021-10-28\n",
      "    creation_time   : 13-08-25\n",
      "    time_reference  : 28226175\n",
      "    coding_history  : A=PCM,F=44100,W=16,T=SOUND FORGE Pro 12.1, \n",
      "                    : A=Microsoft PCM Format F=44100 W=16 M=mono \n",
      "                    : A=PCM,F=44100,W=16,T=SOUND FORGE Pro 12.1, \n",
      "                    : \n",
      "  Duration: 00:00:01.58, bitrate: 709 kb/s\n",
      "    Stream #0:0: Audio: pcm_s16le ([1][0][0][0] / 0x0001), 44100 Hz, mono, s16, 705 kb/s\n",
      "Stream mapping:\n",
      "  Stream #0:0 -> #0:0 (pcm_s16le (native) -> pcm_s16le (native))\n",
      "Press [q] to stop, [?] for help\n",
      "Output #0, wav, to 'are_you_happy_now.wav.16kHz.mono.wav':\n",
      "  Metadata:\n",
      "    time_reference  : 28226175\n",
      "    INAM            : 190\n",
      "    ICRD            : 2021-10-28\n",
      "    coding_history  : A=PCM,F=44100,W=16,T=SOUND FORGE Pro 12.1, \n",
      "                    : A=Microsoft PCM Format F=44100 W=16 M=mono \n",
      "                    : A=PCM,F=44100,W=16,T=SOUND FORGE Pro 12.1, \n",
      "                    : \n",
      "    ISFT            : Lavf58.45.100\n",
      "    Stream #0:0: Audio: pcm_s16le ([1][0][0][0] / 0x0001), 16000 Hz, mono, s16, 256 kb/s\n",
      "    Metadata:\n",
      "      encoder         : Lavc58.91.100 pcm_s16le\n",
      "size=      50kB time=00:00:01.58 bitrate= 256.6kbits/s speed= 326x    \n",
      "video:0kB audio:49kB subtitle:0kB other streams:0kB global headers:0kB muxing overhead: 0.217331%\n"
     ]
    }
   ],
   "source": [
    "os.chdir(\"C:\\\\Users\\\\sukim\\\\before\")\n",
    "directory=os.getcwd()\n",
    "\n",
    "for dire in os.listdir(directory):\n",
    "    os.chdir(directory+\"\\\\\"+dire)\n",
    "    print(\"디렉토리 : \",dire)\n",
    "    for file in os.listdir():\n",
    "        name=os.path.basename(file).replace(\" \",\"_\")\n",
    "        os.rename(file,name)\n",
    "        print(\"파일명 : \",file)\n",
    "    for file in os.listdir():\n",
    "        !ffmpeg -i {file} -ar 16000 -ac 1 {file}.16kHz.mono.wav\n",
    "        os.remove(file)\n",
    "print(len(file),\"개 wav파일 변환 완료\")\n",
    "os.chdir(\"C:\\\\Users\\\\sukim\")"
   ]
  },
  {
   "cell_type": "code",
   "execution_count": 6,
   "id": "730e89fb",
   "metadata": {},
   "outputs": [],
   "source": [
    "def fdf():\n",
    "    global df\n",
    "    for dire in os.listdir(directory):\n",
    "        os.chdir(directory+\"\\\\\"+dire)\n",
    "        flist=[]\n",
    "        fsize=[]\n",
    "        ftran=[]\n",
    "        flist=os.listdir()\n",
    "\n",
    "        \n",
    "        path='/content/drive/MyDrive/DeepSpeech/data1/'+dire+\"/\"\n",
    "        \n",
    "        dfname=pd.DataFrame(flist,columns=[\"wav_filename\"])\n",
    "        \n",
    "        for file in os.listdir():\n",
    "            fsize.append(os.path.getsize(file))\n",
    "        \n",
    "        dfsize=pd.DataFrame(fsize,columns=[\"wav_filesize\"])\n",
    "        \n",
    "        for index,value in enumerate(flist):\n",
    "            flist[index]=flist[index].replace(\"_t_\",\"'t_\")\n",
    "            flist[index]=flist[index].replace(\"_t_\",\"'t_\")\n",
    "            flist[index]=flist[index].replace('_ll_',\"'ll_\")\n",
    "            flist[index]=flist[index].replace('_s_',\"'s_\")\n",
    "            flist[index]=flist[index].replace('_d_',\"'d_\")\n",
    "            flist[index]=flist[index].replace('_m_',\"'m_\")\n",
    "            flist[index]=flist[index].replace(\"_\",\" \")\n",
    "            flist[index]=flist[index].replace(\".wav.16kHz.mono.wav\",\"\")\n",
    "            flist[index]=flist[index].replace(\"  \",\" \")\n",
    "            flist[index]=flist[index].lower()\n",
    "            \n",
    "        dftran=pd.DataFrame(flist,columns=[\"transcript\"])\n",
    "        \n",
    "        \n",
    "        dflist=[dfname,dfsize,dftran]\n",
    "       \n",
    "        dire=pd.concat(dflist,axis=1)\n",
    "        \n",
    "        \n",
    "        dire[\"wav_filename\"]=path+dire['wav_filename']\n",
    "     \n",
    "     \n",
    "        df=pd.concat([df,dire])\n",
    "        \n",
    "        dfcsv(df)\n",
    "\n",
    "def dfcsv(df):\n",
    "    os.chdir(\"C:\\\\Users\\\\sukim\\\\after\")\n",
    "    \n",
    "    df.to_csv(\"audiotrain.csv\")\n",
    "    \n",
    "    file = \"audiotrain.csv\"\n",
    "\n",
    "    df1 = pd.read_csv(file)\n",
    "    df1['split'] = np.random.randn(df1.shape[0], 1)\n",
    "    \n",
    "    # Split ratio for training set\n",
    "    msk = np.random.rand(len(df1)) <= 0.8\n",
    "    train = df1[msk].drop(['Unnamed: 0','split'],axis=1)\n",
    "    inter = df1[~msk].drop(['Unnamed: 0','split'],axis=1)\n",
    "    train.to_csv('atrain.csv', index=False)\n",
    "    inter.to_csv('intermediate.csv', index=False)\n",
    "\n",
    "    df2 = pd.read_csv('intermediate.csv')\n",
    "    df2['split'] = np.random.randn(df2.shape[0], 1)\n",
    "    \n",
    "    # Split ratio for dev and test\n",
    "    msk = np.random.rand(len(df2)) <= 0.5\n",
    "    dev = df2[msk].drop(['split'],axis=1)\n",
    "    test = df2[~msk].drop(['split'],axis=1)\n",
    "    dev.to_csv('adev.csv', index=False)\n",
    "    test.to_csv('atest.csv', index=False)\n",
    "    \n",
    "    \n",
    "\n",
    "\n",
    "        \n",
    "\n",
    "if __name__ == \"__main__\": \n",
    "    os.chdir(\"C:\\\\Users\\\\sukim\\\\before\")\n",
    "    directory=os.getcwd()\n",
    "    df=pd.DataFrame(columns=[\"wav_filename\",\"wav_filesize\",\"transcript\"])\n",
    "    fdf()\n",
    "    os.chdir(\"C:\\\\Users\\\\sukim\")\n",
    "    "
   ]
  },
  {
   "cell_type": "code",
   "execution_count": 8,
   "id": "476b1a01",
   "metadata": {},
   "outputs": [
    {
     "name": "stdout",
     "output_type": "stream",
     "text": [
      "test.csv\n",
      "null 개수 :  result    0\n",
      "dtype: int64\n",
      "                                      result  \\\n",
      "0                                       said   \n",
      "1                                  all right   \n",
      "2                                    and you   \n",
      "3         an elephant is heavier than a bear   \n",
      "4           an elephant is heavier than lion   \n",
      "5                           are you a dancer   \n",
      "6                           are you a farmer   \n",
      "7                          are you all right   \n",
      "8                            are you a pilot   \n",
      "9                           are you a singer   \n",
      "10                         are you happy now   \n",
      "11                              are you okay   \n",
      "12                            are you sleepy   \n",
      "13                              are you sure   \n",
      "14            a tiger is slower than a zebra   \n",
      "15  a water mill in is bigger than the melon   \n",
      "16           a zebra is faster than the drag   \n",
      "\n",
      "                                   file  \n",
      "0                             aesop did  \n",
      "1                             all right  \n",
      "2                               and you  \n",
      "3    an elephant is heavier than a bear  \n",
      "4    an elephant is heavier than a lion  \n",
      "5                      are you a dancer  \n",
      "6                      are you a farmer  \n",
      "7                     are you all right  \n",
      "8                       are you a pilot  \n",
      "9                      are you a singer  \n",
      "10                    are you happy now  \n",
      "11                         are you okay  \n",
      "12                       are you sleepy  \n",
      "13                         are you sure  \n",
      "14       a tiger is slower than a zebra  \n",
      "15  a watermelon is bigger than a melon  \n",
      "16     a zebra is faster than a giraffe  \n",
      "전체 개수: 17\n",
      "all right\n",
      "and you\n",
      "an elephant is heavier than a bear\n",
      "are you a dancer\n",
      "are you a farmer\n",
      "are you all right\n",
      "are you a pilot\n",
      "are you a singer\n",
      "are you happy now\n",
      "are you okay\n",
      "are you sleepy\n",
      "are you sure\n",
      "a tiger is slower than a zebra\n",
      "맞은 개수: 13\n",
      "정확률: 76.47058823529412\n"
     ]
    }
   ],
   "source": [
    "import pandas as pd\n",
    "\n",
    "def nullcheck(file):\n",
    "    print(\"null 개수 : \",file.isnull().sum())\n",
    "\n",
    "def filediv(file):\n",
    "    df1 =file.iloc[::2,:].reset_index(drop=True)\n",
    "    df2 =file.iloc[1::2,:].reset_index(drop=True)\n",
    "    \n",
    "    for index,value in df2.iterrows():\n",
    "        value[\"result\"]=value[\"result\"].split('/')[-1]\n",
    "        value[\"result\"]=value[\"result\"].replace(\"_\",\" \")\n",
    "        value[\"result\"]=value[\"result\"].replace(\".wav.16kHz.mono.wav.txt\",\"\")\n",
    "        value[\"result\"]=value[\"result\"].replace(\".wav.txt\",\"\")\n",
    "        value[\"result\"]=value[\"result\"].split('+')[-1]\n",
    "        #value[\"result\"]=value[\"result\"][:-2]\n",
    "        value[\"result\"]=value[\"result\"].lower()\n",
    "        #value[\"result\"]=value[\"result\"].replace(\".wav.txt\",\"\")\n",
    "    \n",
    "    df2.rename(columns={'result':'file'},inplace=True)\n",
    "    \n",
    "    df=pd.concat([df1,df2],axis=1)\n",
    "    print(df)\n",
    "    print(\"전체 개수:\",len(df))\n",
    "    count=0\n",
    "    \n",
    "    df[\"correct\"]=\"x\"\n",
    "    for index,value in df.iterrows():\n",
    "        df[\"file\"][index]=df[\"file\"][index].replace(\" t \",\"'t \")\n",
    "        df[\"file\"][index]=df[\"file\"][index].replace(' ll ',\"'ll \")\n",
    "        df[\"file\"][index]=df[\"file\"][index].replace(' s ',\"'s \")\n",
    "        df[\"file\"][index]=df[\"file\"][index].replace(' d ',\"'d \")\n",
    "        df[\"file\"][index]=df[\"file\"][index].replace(' m ',\"'m \")\n",
    "        if value[\"result\"]==value[\"file\"]:\n",
    "            print(value[\"result\"])\n",
    "            df[\"correct\"][index]=\"o\"\n",
    "            count+=1\n",
    "    print(\"맞은 개수:\",count)\n",
    "    print(\"정확률:\",count/len(df)*100)\n",
    "    df.to_csv(\"testtest.csv\")\n",
    "    \n",
    "if __name__ ==\"__main__\":\n",
    "    filename=input()\n",
    "    file=pd.read_csv(filename)\n",
    "    nullcheck(file)\n",
    "    filediv(file)"
   ]
  },
  {
   "cell_type": "code",
   "execution_count": null,
   "id": "01f6961e",
   "metadata": {},
   "outputs": [],
   "source": []
  }
 ],
 "metadata": {
  "kernelspec": {
   "display_name": "Python 3",
   "language": "python",
   "name": "python3"
  },
  "language_info": {
   "codemirror_mode": {
    "name": "ipython",
    "version": 3
   },
   "file_extension": ".py",
   "mimetype": "text/x-python",
   "name": "python",
   "nbconvert_exporter": "python",
   "pygments_lexer": "ipython3",
   "version": "3.8.8"
  }
 },
 "nbformat": 4,
 "nbformat_minor": 5
}
